HIERARCHY
ROOT Hips
{
	OFFSET 0.000000 87.230942 0.000000
	CHANNELS 6 Xposition Yposition Zposition Xrotation Yrotation Zrotation
	JOINT Pelvis
	{
		OFFSET 0.000000 0.000000 0.000000
		CHANNELS 3 Xrotation Yrotation Zrotation
		JOINT LeftUpLeg
		{
			OFFSET 12.017000 -9.376404 -2.439400
			CHANNELS 3 Xrotation Yrotation Zrotation
			JOINT LeftLeg
			{
				OFFSET -0.007312 -32.846973 2.110600
				CHANNELS 3 Xrotation Yrotation Zrotation
				JOINT LeftFoot
				{
					OFFSET 0.007312 -32.065170 -0.570400
					CHANNELS 3 Xrotation Yrotation Zrotation
					JOINT LeftToeBase
					{
						OFFSET 0.728300 -11.045900 13.180700
						CHANNELS 3 Xrotation Yrotation Zrotation
						End Site
						{
							OFFSET 0.000000 17.212589 0.000000
						}
					}
				}
				JOINT LeftPantLeg
				{
					OFFSET 0.002788 -16.709013 -3.143600
					CHANNELS 3 Xrotation Yrotation Zrotation
					End Site
					{
						OFFSET -0.605125 24.528742 0.000000
					}
				}
			}
			JOINT Left_Butt
			{
				OFFSET -6.630234 1.326584 -3.183700
				CHANNELS 3 Xrotation Yrotation Zrotation
				End Site
				{
					OFFSET -0.498041 20.188049 0.000000
				}
			}
		}
		JOINT RightUpLeg
		{
			OFFSET -11.717000 -9.376404 -2.439400
			CHANNELS 3 Xrotation Yrotation Zrotation
			JOINT RightLeg
			{
				OFFSET -0.003241 -32.846912 2.110600
				CHANNELS 3 Xrotation Yrotation Zrotation
				JOINT RightFoot
				{
					OFFSET 0.003241 -32.065136 -0.570500
					CHANNELS 3 Xrotation Yrotation Zrotation
					JOINT RightToeBase
					{
						OFFSET -0.728300 -11.045901 13.180700
						CHANNELS 3 Xrotation Yrotation Zrotation
						End Site
						{
							OFFSET 0.000000 17.212593 0.000000
						}
					}
				}
				JOINT RightPantLeg
				{
					OFFSET 0.008142 -16.708982 -3.143700
					CHANNELS 3 Xrotation Yrotation Zrotation
					End Site
					{
						OFFSET 0.605088 24.528715 0.000000
					}
				}
			}
			JOINT Right_Butt
			{
				OFFSET 6.630732 1.326584 -3.183700
				CHANNELS 3 Xrotation Yrotation Zrotation
				End Site
				{
					OFFSET 0.498015 20.188240 0.000000
				}
			}
		}
	}
	JOINT Spine
	{
		OFFSET -0.062400 7.848404 3.918300
		CHANNELS 3 Xrotation Yrotation Zrotation
		JOINT Spine1
		{
			OFFSET -0.072800 11.422302 0.713400
			CHANNELS 3 Xrotation Yrotation Zrotation
			JOINT Spine2
			{
				OFFSET -0.083200 13.054001 -1.931600
				CHANNELS 3 Xrotation Yrotation Zrotation
				JOINT Neck
				{
					OFFSET -0.092200 14.121796 -5.138800
					CHANNELS 3 Xrotation Yrotation Zrotation
					JOINT Head
					{
						OFFSET 0.000200 10.447403 -0.842000
						CHANNELS 3 Xrotation Yrotation Zrotation
						JOINT Visor
						{
							OFFSET 0.457100 25.671204 16.550400
							CHANNELS 3 Xrotation Yrotation Zrotation
							End Site
							{
								OFFSET 0.000000 26.061493 0.000000
							}
						}
						JOINT HairMidA
						{
							OFFSET 0.459400 31.585403 8.437400
							CHANNELS 3 Xrotation Yrotation Zrotation
							End Site
							{
								OFFSET 0.000000 26.061493 0.000000
							}
						}
						JOINT HairMidB
						{
							OFFSET 0.464000 33.309204 -8.389700
							CHANNELS 3 Xrotation Yrotation Zrotation
							End Site
							{
								OFFSET 0.000000 26.061493 0.000000
							}
						}
						JOINT HairMidC
						{
							OFFSET 0.466600 27.991196 -17.375099
							CHANNELS 3 Xrotation Yrotation Zrotation
							End Site
							{
								OFFSET 0.000000 26.061493 0.000000
							}
						}
						JOINT HairMidD
						{
							OFFSET 0.467700 17.888092 -21.169500
							CHANNELS 3 Xrotation Yrotation Zrotation
							End Site
							{
								OFFSET 0.000000 26.061493 0.000000
							}
						}
						JOINT HairMidE
						{
							OFFSET 5.325700 3.514603 -14.369699
							CHANNELS 3 Xrotation Yrotation Zrotation
							End Site
							{
								OFFSET 0.000000 26.061493 0.000000
							}
						}
						JOINT HairMidF
						{
							OFFSET -4.394100 3.514603 -14.372400
							CHANNELS 3 Xrotation Yrotation Zrotation
							End Site
							{
								OFFSET 0.000000 26.061493 0.000000
							}
						}
						JOINT HairLeftA
						{
							OFFSET 15.319900 25.746506 2.623300
							CHANNELS 3 Xrotation Yrotation Zrotation
							End Site
							{
								OFFSET 0.000000 26.061493 0.000000
							}
						}
						JOINT HairLeftB
						{
							OFFSET 12.619500 29.289398 -8.731499
							CHANNELS 3 Xrotation Yrotation Zrotation
							End Site
							{
								OFFSET 0.000000 26.061493 0.000000
							}
						}
						JOINT HairLeftC
						{
							OFFSET 15.714800 15.959900 2.909800
							CHANNELS 3 Xrotation Yrotation Zrotation
							End Site
							{
								OFFSET 0.000000 26.061493 0.000000
							}
						}
						JOINT HairLeftD
						{
							OFFSET 16.101700 18.437408 -7.553200
							CHANNELS 3 Xrotation Yrotation Zrotation
							End Site
							{
								OFFSET 0.000000 26.061493 0.000000
							}
						}
						JOINT HairLeftE
						{
							OFFSET 9.731900 17.915009 -18.316799
							CHANNELS 3 Xrotation Yrotation Zrotation
							End Site
							{
								OFFSET 0.000000 26.061493 0.000000
							}
						}
						JOINT HairLeftF
						{
							OFFSET 11.204300 4.953598 -9.668100
							CHANNELS 3 Xrotation Yrotation Zrotation
							End Site
							{
								OFFSET 0.000000 26.061493 0.000000
							}
						}
						JOINT HairRightA
						{
							OFFSET -14.397900 25.746307 2.615100
							CHANNELS 3 Xrotation Yrotation Zrotation
							End Site
							{
								OFFSET 0.000000 26.061493 0.000000
							}
						}
						JOINT HairRightB
						{
							OFFSET -11.691200 29.289200 -8.738199
							CHANNELS 3 Xrotation Yrotation Zrotation
							End Site
							{
								OFFSET 0.000000 26.061493 0.000000
							}
						}
						JOINT HairRightC
						{
							OFFSET -14.792900 15.959702 2.901400
							CHANNELS 3 Xrotation Yrotation Zrotation
							End Site
							{
								OFFSET 0.000000 26.061493 0.000000
							}
						}
						JOINT HairRightD
						{
							OFFSET -15.174000 18.437195 -7.561900
							CHANNELS 3 Xrotation Yrotation Zrotation
							End Site
							{
								OFFSET 0.000000 26.061493 0.000000
							}
						}
						JOINT HairRightE
						{
							OFFSET -8.798200 17.914902 -18.322001
							CHANNELS 3 Xrotation Yrotation Zrotation
							End Site
							{
								OFFSET 0.000000 26.061493 0.000000
							}
						}
						JOINT HairRightF
						{
							OFFSET -10.275200 4.953506 -9.674099
							CHANNELS 3 Xrotation Yrotation Zrotation
							End Site
							{
								OFFSET 0.000000 26.061493 0.000000
							}
						}
					}
				}
				JOINT LeftShoulder
				{
					OFFSET 5.133500 7.341202 -1.867600
					CHANNELS 3 Xrotation Yrotation Zrotation
					JOINT LeftArm
					{
						OFFSET 8.072663 0.936867 -2.176600
						CHANNELS 3 Xrotation Yrotation Zrotation
						JOINT LeftForeArm
						{
							OFFSET 31.271999 0.000000 0.000000
							CHANNELS 3 Xrotation Yrotation Zrotation
							JOINT LeftHand
							{
								OFFSET 31.771030 0.000000 0.000000
								CHANNELS 3 Xrotation Yrotation Zrotation
								JOINT LeftHandThumb1
								{
									OFFSET 2.886520 -2.557846 4.416640
									CHANNELS 3 Xrotation Yrotation Zrotation
									JOINT LeftHandThumb2
									{
										OFFSET 2.371025 -1.368912 1.368911
										CHANNELS 3 Xrotation Yrotation Zrotation
										JOINT LeftHandThumb3
										{
											OFFSET 2.243378 -1.295212 1.295213
											CHANNELS 3 Xrotation Yrotation Zrotation
											End Site
											{
												OFFSET -0.332611 2.876945 0.020015
											}
										}
									}
								}
								JOINT LeftHandIndex1
								{
									OFFSET 8.568985 -0.641945 3.119977
									CHANNELS 3 Xrotation Yrotation Zrotation
									JOINT LeftHandIndex2
									{
										OFFSET 3.348503 0.000000 0.000000
										CHANNELS 3 Xrotation Yrotation Zrotation
										JOINT LeftHandIndex3
										{
											OFFSET 3.314552 0.000000 0.000000
											CHANNELS 3 Xrotation Yrotation Zrotation
											End Site
											{
												OFFSET -1.032898 3.075485 0.678796
											}
										}
									}
								}
								JOINT LeftHandMiddle1
								{
									OFFSET 8.124603 0.000000 0.000000
									CHANNELS 3 Xrotation Yrotation Zrotation
									JOINT LeftHandMiddle2
									{
										OFFSET 4.166275 0.000000 0.000000
										CHANNELS 3 Xrotation Yrotation Zrotation
										JOINT LeftHandMiddle3
										{
											OFFSET 3.018135 0.000000 0.000000
											CHANNELS 3 Xrotation Yrotation Zrotation
											End Site
											{
												OFFSET -1.032700 2.767982 0.617226
											}
										}
									}
								}
								JOINT LeftHandRing1
								{
									OFFSET 8.571686 -0.031357 -2.884048
									CHANNELS 3 Xrotation Yrotation Zrotation
									JOINT LeftHandRing2
									{
										OFFSET 3.671181 0.000000 0.000000
										CHANNELS 3 Xrotation Yrotation Zrotation
										JOINT LeftHandRing3
										{
											OFFSET 2.728851 0.000000 0.000000
											CHANNELS 3 Xrotation Yrotation Zrotation
											End Site
											{
												OFFSET -0.815796 2.539223 0.577389
											}
										}
									}
								}
								JOINT LeftHandPinky1
								{
									OFFSET 7.854515 -0.675232 -5.213020
									CHANNELS 3 Xrotation Yrotation Zrotation
									JOINT LeftHandPinky2
									{
										OFFSET 3.068596 0.000000 0.000000
										CHANNELS 3 Xrotation Yrotation Zrotation
										JOINT LeftHandPinky3
										{
											OFFSET 2.396042 0.000000 0.000000
											CHANNELS 3 Xrotation Yrotation Zrotation
											End Site
											{
												OFFSET -0.524597 2.267998 0.567429
											}
										}
									}
								}
							}
							JOINT LeftSleeve
							{
								OFFSET 19.684509 -0.200119 0.476146
								CHANNELS 3 Xrotation Yrotation Zrotation
								End Site
								{
									OFFSET -0.031017 25.731133 -0.002868
								}
							}
						}
					}
				}
				JOINT RightShoulder
				{
					OFFSET -4.395900 7.341202 -1.870200
					CHANNELS 3 Xrotation Yrotation Zrotation
					JOINT RightArm
					{
						OFFSET -8.071453 0.936867 -2.181100
						CHANNELS 3 Xrotation Yrotation Zrotation
						JOINT RightForeArm
						{
							OFFSET -31.272011 0.000000 0.000000
							CHANNELS 3 Xrotation Yrotation Zrotation
							JOINT RightHand
							{
								OFFSET -31.771019 0.000000 0.000000
								CHANNELS 3 Xrotation Yrotation Zrotation
								JOINT RightHandThumb1
								{
									OFFSET -2.886520 -2.557808 4.416626
									CHANNELS 3 Xrotation Yrotation Zrotation
									JOINT RightHandThumb2
									{
										OFFSET -2.371056 -1.368927 1.368928
										CHANNELS 3 Xrotation Yrotation Zrotation
										JOINT RightHandThumb3
										{
											OFFSET -2.243362 -1.295204 1.295206
											CHANNELS 3 Xrotation Yrotation Zrotation
											End Site
											{
												OFFSET 0.332642 2.876938 0.020047
											}
										}
									}
								}
								JOINT RightHandIndex1
								{
									OFFSET -8.568993 -0.641953 3.120017
									CHANNELS 3 Xrotation Yrotation Zrotation
									JOINT RightHandIndex2
									{
										OFFSET -3.348518 0.000000 0.000000
										CHANNELS 3 Xrotation Yrotation Zrotation
										JOINT RightHandIndex3
										{
											OFFSET -3.314552 0.000000 0.000000
											CHANNELS 3 Xrotation Yrotation Zrotation
											End Site
											{
												OFFSET 1.032898 3.075478 0.678804
											}
										}
									}
								}
								JOINT RightHandMiddle1
								{
									OFFSET -8.124588 0.000000 0.000000
									CHANNELS 3 Xrotation Yrotation Zrotation
									JOINT RightHandMiddle2
									{
										OFFSET -4.166275 0.000000 0.000000
										CHANNELS 3 Xrotation Yrotation Zrotation
										JOINT RightHandMiddle3
										{
											OFFSET -3.018097 0.000000 0.000000
											CHANNELS 3 Xrotation Yrotation Zrotation
											End Site
											{
												OFFSET 1.032700 2.767937 0.617197
											}
										}
									}
								}
								JOINT RightHandRing1
								{
									OFFSET -8.571747 -0.031349 -2.884061
									CHANNELS 3 Xrotation Yrotation Zrotation
									JOINT RightHandRing2
									{
										OFFSET -3.671204 0.000000 0.000000
										CHANNELS 3 Xrotation Yrotation Zrotation
										JOINT RightHandRing3
										{
											OFFSET -2.728874 0.000000 0.000000
											CHANNELS 3 Xrotation Yrotation Zrotation
											End Site
											{
												OFFSET 0.815804 2.539261 0.577413
											}
										}
									}
								}
								JOINT RightHandPinky1
								{
									OFFSET -7.854561 -0.675247 -5.212970
									CHANNELS 3 Xrotation Yrotation Zrotation
									JOINT RightHandPinky2
									{
										OFFSET -3.068550 0.000000 0.000000
										CHANNELS 3 Xrotation Yrotation Zrotation
										JOINT RightHandPinky3
										{
											OFFSET -2.395981 0.000000 0.000000
											CHANNELS 3 Xrotation Yrotation Zrotation
											End Site
											{
												OFFSET 0.524605 2.267952 0.567413
											}
										}
									}
								}
							}
							JOINT RightSleeve
							{
								OFFSET -19.684753 -0.200165 0.476065
								CHANNELS 3 Xrotation Yrotation Zrotation
								End Site
								{
									OFFSET 0.031342 25.731255 -0.002917
								}
							}
						}
					}
				}
				JOINT Hood
				{
					OFFSET 0.369700 14.447800 -5.317800
					CHANNELS 3 Xrotation Yrotation Zrotation
					JOINT Hood1
					{
						OFFSET 0.001700 -5.553802 -5.895100
						CHANNELS 3 Xrotation Yrotation Zrotation
						JOINT Hood2
						{
							OFFSET -0.000200 -8.380501 0.763600
							CHANNELS 3 Xrotation Yrotation Zrotation
							End Site
							{
								OFFSET 0.000000 8.415215 0.000000
							}
						}
					}
				}
				JOINT Left_Breast
				{
					OFFSET 5.682500 3.120102 3.188800
					CHANNELS 3 Xrotation Yrotation Zrotation
					End Site
					{
						OFFSET 0.000000 10.528564 0.000000
					}
				}
				JOINT Right_Breast
				{
					OFFSET -4.947600 3.120102 3.185900
					CHANNELS 3 Xrotation Yrotation Zrotation
					End Site
					{
						OFFSET 0.000000 10.528564 0.000000
					}
				}
				JOINT Whistle
				{
					OFFSET 0.368200 11.471298 0.095400
					CHANNELS 3 Xrotation Yrotation Zrotation
					JOINT Whistle1
					{
						OFFSET -0.002000 -6.349899 7.479800
						CHANNELS 3 Xrotation Yrotation Zrotation
						JOINT Whistle2
						{
							OFFSET -0.001300 -8.217598 4.717600
							CHANNELS 3 Xrotation Yrotation Zrotation
							End Site
							{
								OFFSET 0.000000 9.475479 0.000000
							}
						}
					}
				}
			}
		}
		JOINT Belly
		{
			OFFSET 0.212400 1.593002 3.163700
			CHANNELS 3 Xrotation Yrotation Zrotation
			End Site
			{
				OFFSET 0.000000 7.496635 0.000000
			}
		}
	}
	JOINT FitGrandmaFacialAnim_Joint
	{
		OFFSET 1.150000 -86.211197 -1.220100
		CHANNELS 3 Xrotation Yrotation Zrotation
		End Site
		{
			OFFSET 0.000000 31.666618 0.000000
		}
	}
}
MOTION
Frames: 4
Frame Time: 0.016667
18.777550 79.835663 3.495398 154.148572 -63.958650 159.893841 -0.000001 -0.000001 0.000000 -54.312489 46.609139 53.601217 37.840163 -12.292970 -4.804544 0.959889 7.534664 -0.795165 -0.000000 -0.000001 0.000000 0.000000 -0.000000 0.000000 -0.000002 -0.000000 0.000002 -39.987059 -15.724820 -27.217342 45.876417 -4.460149 5.370410 -16.690810 -3.430284 9.713395 -0.000000 0.000000 -0.000000 -0.000001 0.000001 0.000001 -0.000000 -0.000000 0.000001 10.369037 -2.866758 2.105206 5.441873 -1.990664 -3.512890 -3.218469 -5.241831 -2.484901 6.043346 13.386873 -0.965035 -12.384978 14.668031 -5.260452 0.000003 0.000000 -0.000000 0.000003 0.000000 -0.000000 0.000003 0.000000 -0.000000 0.000003 0.000000 -0.000000 0.000003 0.000000 -0.000000 0.000003 0.000000 -0.000000 0.000003 0.000000 -0.000000 0.000003 0.000000 -0.000000 0.000003 0.000000 -0.000000 0.000003 0.000000 -0.000000 0.000003 0.000000 -0.000000 0.000003 0.000000 -0.000000 0.000003 0.000000 -0.000000 0.000003 0.000000 -0.000000 0.000003 0.000000 -0.000000 0.000003 0.000000 -0.000000 0.000003 0.000000 -0.000000 0.000003 0.000000 -0.000000 0.000003 0.000000 -0.000000 -1.837978 -14.467488 -4.296790 -24.431884 -9.271203 -47.099253 -14.226262 -27.309260 -17.570322 3.474891 -7.760250 6.842577 20.212990 -4.649850 10.411160 3.371806 17.053172 -9.307511 0.000000 0.000001 0.000003 -0.754207 0.208570 -13.245167 0.030475 -0.759502 -17.420377 0.000001 0.000000 0.000001 2.446922 2.844470 -23.035250 -0.021042 -2.027880 -31.425185 -0.000003 0.000000 0.000000 0.752479 4.505548 -30.750242 -0.981910 -1.227419 -35.970935 0.000002 -0.000000 0.000000 -1.632796 3.694665 -37.232727 -0.950059 -0.779051 -32.064572 -0.000001 0.000002 0.000003 0.000000 -0.000001 -0.000000 -5.499248 24.268057 2.019075 -13.674992 -20.288519 57.835153 13.715968 34.549429 -4.170662 13.832369 22.666574 12.809461 55.149563 18.649545 -29.698277 -0.442566 -14.180555 7.313154 0.000002 0.000001 -0.000002 5.673391 7.585018 36.844178 1.050431 3.824493 68.900244 0.000001 -0.000004 -0.000001 -0.125711 1.886095 45.000780 -1.169019 3.204657 68.417663 0.000001 0.000002 -0.000001 -5.312005 1.216632 58.508814 -0.745210 1.667551 48.011281 0.000002 -0.000001 -0.000001 -7.756803 -9.376500 47.264007 -0.526039 1.541626 45.600515 -0.000003 -0.000002 0.000000 -0.000001 0.000005 -0.000001 0.000002 -0.000001 -0.000000 0.000002 -0.000001 -0.000000 0.000002 -0.000001 -0.000000 0.000002 -0.000001 -0.000000 0.000002 -0.000001 -0.000000 0.000002 -0.000001 -0.000000 0.000001 -0.000001 -0.000000 0.000001 -0.000001 -0.000000 0.000003 -0.000001 0.000002 -0.000001 -0.000001 0.000000 
18.812819 79.779236 2.936006 154.837643 -62.572702 160.691088 -0.000001 0.000000 -0.000000 -56.039820 46.030243 55.165969 38.179716 -14.018041 -4.547242 2.342811 6.675592 1.010590 0.000000 -0.000001 -0.000000 0.000001 0.000002 0.000001 0.000000 -0.000004 -0.000003 -40.534526 -15.435988 -26.582459 46.350524 -4.139328 5.460198 -17.205207 -2.815257 9.058808 0.000000 0.000002 0.000000 -0.000001 -0.000002 0.000002 0.000000 -0.000002 -0.000001 10.478711 -2.847954 2.077363 5.299429 -1.863428 -3.688209 -3.740332 -4.710124 -2.529084 6.087841 13.825681 -1.303478 -12.333069 14.943267 -5.101970 0.000001 0.000000 -0.000000 0.000001 0.000000 -0.000000 0.000001 0.000000 -0.000000 0.000001 0.000000 -0.000000 0.000001 0.000000 -0.000000 0.000001 0.000000 -0.000000 0.000001 0.000000 -0.000000 0.000001 0.000000 -0.000000 0.000001 0.000000 -0.000000 0.000001 0.000000 -0.000000 0.000001 0.000000 -0.000000 0.000001 0.000000 -0.000000 0.000001 0.000000 -0.000000 0.000001 0.000000 -0.000000 0.000001 0.000000 -0.000000 0.000001 0.000000 -0.000000 0.000001 0.000000 -0.000000 0.000001 0.000000 -0.000000 0.000001 0.000000 -0.000000 -1.833820 -14.445316 -4.259436 -24.484058 -9.447717 -47.266750 -14.703181 -28.284800 -17.623254 3.654415 -8.621948 6.264453 20.213233 -4.649950 10.411321 3.371639 17.053304 -9.307558 -0.000002 0.000001 0.000001 -0.754227 0.208557 -13.245168 0.030201 -0.759587 -17.420343 0.000001 -0.000000 -0.000003 2.446870 2.844495 -23.035260 -0.021118 -2.027798 -31.425185 0.000001 0.000001 -0.000003 0.752450 4.505430 -30.750266 -0.981770 -1.227648 -35.970949 -0.000003 0.000002 0.000003 -1.632806 3.694688 -37.232720 -0.949870 -0.779172 -32.064603 -0.000001 0.000001 -0.000001 -0.000002 -0.000003 -0.000002 -5.518090 24.192586 2.050980 -13.471666 -20.141991 57.616628 14.645626 34.292505 -4.668583 13.381611 22.766240 12.759866 55.149563 18.649550 -29.698284 -0.442566 -14.180555 7.313153 -0.000001 0.000002 -0.000001 5.673393 7.585025 36.844175 1.050432 3.824498 68.900250 -0.000002 0.000001 0.000002 -0.125711 1.886104 45.000776 -1.169018 3.204660 68.417670 -0.000005 -0.000001 -0.000002 -5.312000 1.216644 58.508814 -0.745212 1.667556 48.011281 0.000000 0.000000 -0.000001 -7.756800 -9.376495 47.264007 -0.526039 1.541623 45.600511 -0.000001 -0.000001 0.000001 0.000000 0.000002 -0.000002 0.000001 0.000001 -0.000001 0.000001 0.000001 -0.000001 0.000001 0.000001 -0.000001 0.000001 0.000001 -0.000001 0.000001 0.000001 -0.000001 0.000001 0.000001 -0.000000 0.000001 -0.000000 0.000000 0.000001 -0.000000 0.000000 0.000001 0.000002 -0.000000 -0.000001 0.000000 -0.000000 
18.819946 79.717735 2.391154 155.462605 -61.255186 161.447217 -0.000002 0.000000 0.000000 -57.497653 45.444677 56.390937 38.265882 -15.578357 -4.264598 3.809789 5.869908 2.699102 0.000000 -0.000001 -0.000000 -0.000001 0.000002 0.000001 -0.000001 -0.000000 -0.000003 -41.016768 -15.138100 -25.988609 46.834320 -3.842805 5.508549 -17.727329 -2.239854 8.490009 0.000000 -0.000000 0.000000 -0.000001 -0.000001 0.000002 -0.000000 -0.000000 -0.000001 10.538852 -2.816865 2.035550 5.170758 -1.727734 -3.885309 -4.258838 -4.169623 -2.589058 6.369387 14.108987 -1.231392 -12.373163 15.396899 -5.297323 -0.000001 0.000000 0.000000 -0.000001 0.000000 0.000000 -0.000001 0.000000 0.000000 -0.000001 0.000000 0.000000 -0.000001 0.000000 0.000000 -0.000001 0.000000 0.000000 -0.000001 0.000000 0.000000 -0.000001 0.000000 0.000000 -0.000001 0.000000 0.000000 -0.000001 0.000000 0.000000 -0.000001 0.000000 0.000000 -0.000001 0.000000 0.000000 -0.000001 0.000000 0.000000 -0.000001 0.000000 0.000000 -0.000001 0.000000 0.000000 -0.000001 0.000000 0.000000 -0.000001 0.000000 0.000000 -0.000001 0.000000 0.000000 -0.000001 0.000000 0.000000 -1.831044 -14.578219 -4.183436 -24.473714 -9.331606 -47.461171 -15.137519 -29.354862 -17.695166 3.798878 -9.351028 5.643272 20.213497 -4.650059 10.411477 3.371478 17.053440 -9.307619 -0.000002 -0.000001 0.000001 -0.754164 0.208573 -13.245183 0.029911 -0.759693 -17.420355 0.000002 0.000003 -0.000001 2.446829 2.844514 -23.035238 -0.021167 -2.027673 -31.425188 0.000000 -0.000003 -0.000002 0.752469 4.505317 -30.750249 -0.981619 -1.227859 -35.970894 0.000002 0.000000 -0.000002 -1.632811 3.694678 -37.232755 -0.949734 -0.779232 -32.064566 -0.000000 -0.000004 0.000001 0.000001 0.000001 -0.000003 -5.543633 24.107513 2.123104 -13.173061 -20.156856 57.392317 15.493924 34.171020 -5.133750 12.981424 22.876445 12.755363 55.149570 18.649550 -29.698277 -0.442566 -14.180555 7.313152 -0.000000 0.000002 0.000000 5.673395 7.585027 36.844178 1.050435 3.824498 68.900250 0.000005 0.000001 0.000002 -0.125713 1.886097 45.000773 -1.169022 3.204658 68.417670 0.000002 -0.000000 0.000000 -5.312007 1.216638 58.508814 -0.745211 1.667554 48.011281 0.000004 -0.000001 -0.000001 -7.756804 -9.376497 47.264007 -0.526038 1.541623 45.600511 -0.000003 -0.000002 0.000000 0.000000 -0.000001 0.000002 -0.000000 0.000002 -0.000001 -0.000000 0.000002 -0.000001 -0.000000 0.000002 -0.000001 -0.000000 0.000002 -0.000001 -0.000000 0.000002 -0.000001 -0.000001 0.000002 0.000000 -0.000001 -0.000000 -0.000000 -0.000001 -0.000000 -0.000000 0.000000 0.000002 -0.000001 -0.000002 0.000000 0.000000 
18.807392 79.647003 1.795053 156.011370 -59.977045 162.190273 0.000000 -0.000000 -0.000000 -58.590537 44.926829 57.198012 37.968011 -16.921160 -3.991949 5.297573 5.068857 4.157213 0.000001 0.000001 0.000002 -0.000000 0.000001 -0.000000 -0.000002 -0.000003 -0.000001 -41.484134 -14.813413 -25.420627 47.412738 -3.571427 5.505921 -18.337758 -1.691872 7.974119 -0.000000 0.000004 0.000000 -0.000000 -0.000003 0.000003 0.000003 0.000001 0.000002 10.562022 -2.781127 1.987789 5.077497 -1.603206 -4.097639 -4.749399 -3.643009 -2.662458 6.469083 14.668540 -1.949846 -12.456451 15.384854 -4.709113 -0.000000 -0.000000 -0.000000 -0.000000 -0.000000 -0.000000 -0.000000 -0.000000 -0.000000 -0.000000 -0.000000 -0.000000 -0.000000 -0.000000 -0.000000 -0.000000 -0.000000 -0.000000 -0.000000 -0.000000 -0.000000 -0.000000 -0.000000 -0.000000 -0.000000 -0.000000 -0.000000 -0.000000 -0.000000 -0.000000 -0.000000 -0.000000 -0.000000 -0.000000 -0.000000 -0.000000 -0.000000 -0.000000 -0.000000 -0.000000 -0.000000 -0.000000 -0.000000 -0.000000 -0.000000 -0.000000 -0.000000 -0.000000 -0.000000 -0.000000 -0.000000 -0.000000 -0.000000 -0.000000 -0.000000 -0.000000 -0.000000 -1.822009 -14.611902 -4.119292 -24.396493 -9.365094 -47.588021 -15.736300 -30.089944 -17.677846 3.879475 -10.256077 4.806039 20.213723 -4.650153 10.411634 3.371295 17.053565 -9.307673 -0.000002 0.000002 -0.000004 -0.754152 0.208541 -13.245177 0.029637 -0.759765 -17.420372 0.000002 0.000004 0.000001 2.446774 2.844556 -23.035254 -0.021235 -2.027543 -31.425178 -0.000004 0.000003 -0.000001 0.752456 4.505243 -30.750232 -0.981489 -1.228046 -35.970901 -0.000000 0.000000 0.000000 -1.632806 3.694656 -37.232741 -0.949581 -0.779290 -32.064589 -0.000002 0.000001 0.000003 0.000001 -0.000001 -0.000002 -5.569919 24.018599 2.202750 -12.836179 -20.262267 57.156437 16.241546 34.139635 -5.554870 12.609191 23.011160 12.781493 55.149563 18.649550 -29.698284 -0.442566 -14.180559 7.313148 0.000001 0.000001 -0.000002 5.673392 7.585018 36.844178 1.050432 3.824495 68.900250 -0.000002 -0.000001 0.000003 -0.125708 1.886096 45.000783 -1.169022 3.204653 68.417670 0.000003 0.000002 -0.000003 -5.312009 1.216637 58.508814 -0.745212 1.667557 48.011285 0.000004 -0.000000 -0.000001 -7.756802 -9.376499 47.264004 -0.526038 1.541625 45.600511 -0.000003 -0.000001 0.000002 -0.000000 -0.000000 0.000002 0.000000 0.000000 0.000001 0.000000 0.000000 0.000001 0.000000 0.000000 0.000001 0.000000 0.000000 0.000001 0.000000 0.000000 0.000001 0.000000 0.000000 0.000000 0.000000 -0.000000 -0.000000 0.000000 -0.000000 -0.000000 0.000003 -0.000001 -0.000000 0.000000 -0.000000 -0.000000 
